<svg width="24" height="24" viewBox="0 0 24 24" fill="none" xmlns="http://www.w3.org/2000/svg">
<g clip-path="url(#clip0_6_20)">
<rect width="24" height="24" fill="#1E1E1E"/>
<path fill-rule="evenodd" clip-rule="evenodd" d="M16.0851 2.57143C15.8215 2.57155 15.5605 2.62387 15.3171 2.72538C15.0738 2.82689 14.853 2.97557 14.6674 3.16286L14.664 3.16457L4.26 13.6011C3.73352 14.1379 3.43888 14.86 3.43952 15.6118C3.44016 16.3637 3.73603 17.0853 4.26343 17.6211L7.18629 20.5937C7.57733 20.9906 8.07817 21.2615 8.62439 21.3715C9.17062 21.4814 9.73725 21.4255 10.2514 21.2109C10.5943 21.0686 10.9029 20.8577 11.1617 20.5937L11.1669 20.5903L20.9331 10.74C21.1734 10.4979 21.5 10.3612 21.8412 10.3599C22.1823 10.3586 22.5099 10.4929 22.752 10.7331C22.9941 10.9734 23.1308 11.3 23.1321 11.6411C23.1334 11.9823 22.9991 12.3099 22.7589 12.552L12.9977 22.3954L12.9943 22.3971C12.4958 22.9048 11.9011 23.308 11.2451 23.5833C10.589 23.8585 9.88463 24.0003 9.17314 24.0003C8.46166 24.0003 7.75731 23.8585 7.10123 23.5833C6.44515 23.308 5.8505 22.9048 5.352 22.3971L2.43086 19.4263C1.42915 18.4088 0.867706 17.0381 0.867706 15.6103C0.867706 14.1824 1.42915 12.8118 2.43086 11.7943L2.436 11.7891L12.8417 1.35086C13.2664 0.922987 13.7715 0.583395 14.3281 0.351653C14.8846 0.119912 15.4814 0.000602722 16.0843 0.000602722C16.6871 0.000602722 17.284 0.119912 17.8405 0.351653C18.397 0.583395 18.9022 0.922987 19.3269 1.35086L20.4874 2.50971V2.51143C20.9154 2.93584 21.255 3.44075 21.4869 3.99706C21.7188 4.55338 21.8382 5.15009 21.8384 5.75278C21.8386 6.35548 21.7194 6.95225 21.4878 7.50869C21.2563 8.06513 20.9168 8.57022 20.4891 8.99486L20.4874 8.99657L11.2697 18.2469L11.268 18.2486C10.9958 18.5227 10.6722 18.7402 10.3156 18.8886C9.95897 19.0371 9.57654 19.1135 9.19029 19.1135C8.80403 19.1135 8.4216 19.0371 8.06501 18.8886C7.70842 18.7402 7.38473 18.5227 7.11257 18.2486L7.104 18.2383L6.53657 17.6554C6.26408 17.3828 6.04809 17.0591 5.90099 16.7029C5.75389 16.3466 5.67858 15.9648 5.67938 15.5794C5.68018 15.1939 5.75706 14.8124 5.90563 14.4568C6.0542 14.1011 6.27153 13.7783 6.54514 13.5069L12.7337 7.36971C12.9783 7.14345 13.3011 7.02096 13.6343 7.02806C13.9674 7.03516 14.2847 7.1713 14.5194 7.40778C14.7541 7.64426 14.8879 7.96263 14.8924 8.29578C14.897 8.62893 14.7721 8.95086 14.544 9.19371L8.35543 15.3326C8.3221 15.3657 8.29565 15.4051 8.27761 15.4485C8.25956 15.4919 8.25027 15.5384 8.25027 15.5854C8.25027 15.6324 8.25956 15.679 8.27761 15.7224C8.29565 15.7657 8.3221 15.8051 8.35543 15.8383L8.37257 15.8554L8.94172 16.4383C8.97479 16.4712 9.01402 16.4972 9.05718 16.515C9.10033 16.5327 9.14656 16.5417 9.19321 16.5416C9.23987 16.5414 9.28603 16.5321 9.32906 16.514C9.3721 16.496 9.41115 16.4697 9.444 16.4366V16.4349L18.6703 7.17771L18.6754 7.17086C18.8623 6.98509 19.0107 6.7642 19.1119 6.52089C19.2131 6.27758 19.2652 6.01666 19.2652 5.75314C19.2652 5.48962 19.2131 5.2287 19.1119 4.98539C19.0107 4.74209 18.8623 4.52119 18.6754 4.33543L18.672 4.332L17.5063 3.16628L17.5029 3.16286C17.3173 2.97557 17.0965 2.82689 16.8531 2.72538C16.6098 2.62387 16.3488 2.57155 16.0851 2.57143Z" fill="white"/>
</g>
<defs>
<clipPath id="clip0_6_20">
<rect width="24" height="24" fill="white"/>
</clipPath>
</defs>
</svg>
