<svg width="79" height="74" viewBox="0 0 79 74" fill="none" xmlns="http://www.w3.org/2000/svg">
<path d="M46.6977 0C29.186 0 14.593 14.593 14.593 32.1046C14.593 38.5256 16.3442 44.3628 19.8465 49.6163L0 67.1279L5.83721 73.5488L25.6837 56.6209C31.5209 61.8744 38.5256 64.793 46.6977 64.793C64.2093 64.793 78.8023 50.2 78.8023 32.6884C78.8023 14.593 64.2093 0 46.6977 0ZM46.6977 55.4535C33.8558 55.4535 23.3488 44.9465 23.3488 32.1046C23.3488 19.2628 33.8558 8.75581 46.6977 8.75581C59.5395 8.75581 70.0465 19.2628 70.0465 32.1046C70.0465 44.9465 59.5395 55.4535 46.6977 55.4535Z" fill="white"/>
</svg>
