<svg width="79" height="89" viewBox="0 0 79 89" fill="none" xmlns="http://www.w3.org/2000/svg">
<path d="M29.5509 12.57C29.5509 13.8762 29.032 15.129 28.1083 16.0526C27.1847 16.9762 25.9319 17.4951 24.6257 17.4951C23.3195 17.4951 22.0668 16.9762 21.1431 16.0526C20.2195 15.129 19.7006 13.8762 19.7006 12.57C19.7006 11.2638 20.2195 10.011 21.1431 9.0874C22.0668 8.16375 23.3195 7.64486 24.6257 7.64486C25.9319 7.64486 27.1847 8.16375 28.1083 9.0874C29.032 10.011 29.5509 11.2638 29.5509 12.57ZM36.9386 12.57C36.9386 15.8356 35.6413 18.9674 33.3322 21.2765C31.0231 23.5856 27.8913 24.8829 24.6257 24.8829C21.3601 24.8829 18.2283 23.5856 15.9192 21.2765C13.6101 18.9674 12.3129 15.8356 12.3129 12.57C12.3129 9.30443 13.6101 6.1726 15.9192 3.8635C18.2283 1.55439 21.3601 0.257143 24.6257 0.257143C27.8913 0.257143 31.0231 1.55439 33.3322 3.8635C35.6413 6.1726 36.9386 9.30443 36.9386 12.57ZM48.0201 49.5086V44.5834C48.0201 40.9913 46.5932 37.5463 44.0532 35.0063C41.5131 32.4663 38.0681 31.0393 34.476 31.0393H14.7754C11.1833 31.0393 7.73829 32.4663 5.19827 35.0063C2.65825 37.5463 1.23129 40.9913 1.23129 44.5834V49.5086H8.619V44.5834C8.619 41.1851 11.3771 38.427 14.7754 38.427H34.476C37.8743 38.427 40.6324 41.1851 40.6324 44.5834V49.5086H48.0201ZM0 88.9097H44.3263V81.522H0V88.9097ZM78.8023 69.2091H0V61.8214H78.8023V69.2091Z" fill="white"/>
</svg>
